<svg width="22" height="22" viewBox="0 0 22 22" fill="none" xmlns="http://www.w3.org/2000/svg">
<path d="M6.76844 11.6875H8.35656L7.5625 9.4007L6.76844 11.6875ZM15.125 11C14.5565 11 14.0938 11.4628 14.0938 12.0312C14.0938 12.5997 14.5565 13.0625 15.125 13.0625C15.6935 13.0625 16.1562 12.5997 16.1562 12.0312C16.1562 11.4628 15.6935 11 15.125 11ZM19.9375 2.75H2.0625C0.923828 2.75 0 3.67383 0 4.8125V17.1875C0 18.3262 0.923828 19.25 2.0625 19.25H19.9375C21.0762 19.25 22 18.3262 22 17.1875V4.8125C22 3.67383 21.0762 2.75 19.9375 2.75ZM10.7671 15.125H10.0392C9.7466 15.125 9.48578 14.9394 9.38953 14.6631L9.07285 13.75H6.05258L5.73547 14.6631C5.68859 14.798 5.60084 14.915 5.48441 14.9978C5.36797 15.0806 5.22864 15.1251 5.08578 15.125H4.35789C3.8848 15.125 3.55309 14.6588 3.7082 14.2119L6.01562 7.56766C6.08592 7.36532 6.2175 7.1899 6.39206 7.06577C6.56663 6.94164 6.77553 6.87496 6.98973 6.875H8.13527C8.34953 6.87496 8.55848 6.94169 8.73306 7.06591C8.90764 7.19012 9.03918 7.36565 9.10938 7.56809L11.4164 14.2119C11.5715 14.6588 11.2398 15.125 10.7671 15.125ZM18.2188 14.4375C18.2188 14.8173 17.9111 15.125 17.5312 15.125H16.8438C16.6354 15.125 16.4553 15.0275 16.329 14.8809C15.9586 15.0382 15.5517 15.125 15.125 15.125C13.4191 15.125 12.0312 13.7371 12.0312 12.0312C12.0312 10.3254 13.4191 8.9375 15.125 8.9375C15.4885 8.9375 15.8323 9.01184 16.1562 9.12742V7.5625C16.1562 7.18266 16.4639 6.875 16.8438 6.875H17.5312C17.9111 6.875 18.2188 7.18266 18.2188 7.5625V14.4375Z" fill="black"/>
</svg>
