<svg width="67" height="59" viewBox="0 0 67 59" fill="none" xmlns="http://www.w3.org/2000/svg">
<path d="M34.1033 0.0674065C15.6222 -0.243431 0.38323 14.254 0.0674872 32.4479C-0.111855 42.764 4.55862 52.0357 11.995 58.2015C12.4812 57.7837 13.0028 57.4008 13.5825 57.0899L23.5688 51.7273C24.8785 51.0236 25.6944 49.6721 25.6944 48.2024V44.174C25.6944 44.174 22.763 40.7224 21.6453 35.9268C20.7183 35.3362 20.0969 34.3155 20.0969 33.1529V28.744C20.0969 27.7742 20.5351 26.9076 21.2159 26.3008V19.9274C21.2159 19.9274 19.886 10.0092 33.5299 10.0092C47.1737 10.0092 45.844 19.9274 45.844 19.9274V26.3008C46.526 26.9076 46.9628 27.7742 46.9628 28.744V33.1529C46.9628 34.635 45.9526 35.8821 44.581 36.2986C43.8169 38.6373 42.7143 40.8667 41.2569 42.8933C40.8893 43.4044 40.5457 43.837 40.2451 44.174V48.3044C40.2451 49.825 41.1179 51.2163 42.4996 51.8952L53.1932 57.1583C53.8348 57.4741 54.4145 57.8732 54.9487 58.3171C62.1603 52.3963 66.8193 43.5436 66.9923 33.5744C67.3106 15.3805 52.5856 0.378244 34.1033 0.0674065Z" fill="#E3E3E3"/>
</svg>
