<svg width="22" height="22" viewBox="0 0 22 22" fill="none" xmlns="http://www.w3.org/2000/svg">
<g clip-path="url(#clip0_511_3199)">
<path d="M7.39922 9.74538C6.77187 9.62077 6.1875 10.1278 6.1875 10.768V12.9337C6.1875 13.3719 6.49258 13.7243 6.90508 13.879C7.68711 14.1712 8.25 14.9274 8.25 15.8126C8.25 16.9512 7.32617 17.8751 6.1875 17.8751C5.04883 17.8751 4.125 16.9512 4.125 15.8126V5.15631C4.125 4.58483 3.66523 4.12506 3.09375 4.12506H1.03125C0.459766 4.12506 0 4.58483 0 5.15631V15.8126C0 19.6583 3.52773 22.6962 7.51953 21.8583C9.85703 21.3684 11.7434 19.4778 12.2332 17.1446C12.9809 13.5825 10.6434 10.3899 7.39922 9.74538ZM8.98047 6.48429e-05C8.58516 -0.0214195 8.25 0.292252 8.25 0.687565V2.04538C8.25 2.41061 8.53359 2.71139 8.89453 2.72858C14.4547 3.02936 18.9234 7.54108 19.2457 13.1055C19.2672 13.4665 19.568 13.7501 19.9289 13.7501H21.3082C21.7035 13.7501 22.0172 13.4149 21.9957 13.0196C21.6305 6.0071 15.993 0.369596 8.98047 6.48429e-05ZM8.99336 4.12506C8.59375 4.09499 8.25 4.41296 8.25 4.81686V6.19616C8.25 6.5571 8.5293 6.85358 8.88594 6.87936C12.1859 7.15006 14.8156 9.80983 15.1121 13.1184C15.1465 13.4751 15.4387 13.7501 15.7953 13.7501H17.1789C17.5785 13.7501 17.9008 13.4063 17.8707 13.0067C17.5098 8.27585 13.7242 4.4903 8.99336 4.12506Z" fill="white"/>
</g>
<defs>
<clipPath id="clip0_511_3199">
<rect width="22" height="22" fill="white"/>
</clipPath>
</defs>
</svg>
