<svg width="30" height="24" viewBox="0 0 30 24" fill="none" xmlns="http://www.w3.org/2000/svg">
<g clip-path="url(#clip0_217_3753)">
<path d="M28.1811 20.6719H1.81859C1.00986 20.6719 0.354004 20.0246 0.354004 19.2266V4.77344C0.354004 3.97535 1.00986 3.32812 1.81859 3.32812H28.1811C28.9898 3.32812 29.6457 3.97535 29.6457 4.77344V19.2266C29.6457 20.0246 28.9898 20.6719 28.1811 20.6719ZM2.55088 5.49609V8.38672C4.16879 8.38672 5.48005 7.09271 5.48005 5.49609H2.55088ZM2.55088 15.6133V18.5039H5.48005C5.48005 16.9073 4.16879 15.6133 2.55088 15.6133ZM14.9998 7.66406C12.9773 7.66406 11.3384 9.60575 11.3384 12C11.3384 14.3947 12.9778 16.3359 14.9998 16.3359C17.0219 16.3359 18.6613 14.3947 18.6613 12C18.6613 9.60485 17.0214 7.66406 14.9998 7.66406ZM27.4488 5.49609H24.5196C24.5196 7.09271 25.8309 8.38672 27.4488 8.38672V5.49609ZM27.4488 15.6133C25.8309 15.6133 24.5196 16.9073 24.5196 18.5039H27.4488V15.6133Z" fill="#1A39AE"/>
</g>
<defs>
<clipPath id="clip0_217_3753">
<rect width="29.2917" height="23.125" fill="white" transform="matrix(1 0 0 -1 0.354004 23.5625)"/>
</clipPath>
</defs>
</svg>
