<svg width="22" height="22" viewBox="0 0 22 22" fill="none" xmlns="http://www.w3.org/2000/svg">
<path fill-rule="evenodd" clip-rule="evenodd" d="M14.9282 1.83301H17.9226C19.1615 1.83301 20.1665 2.84675 20.1665 4.09734V7.11677C20.1665 8.36641 19.1615 9.3811 17.9226 9.3811H14.9282C13.6884 9.3811 12.6833 8.36641 12.6833 7.11677V4.09734C12.6833 2.84675 13.6884 1.83301 14.9282 1.83301Z" stroke="#53546D" stroke-width="1.5" stroke-linecap="round" stroke-linejoin="round"/>
<path fill-rule="evenodd" clip-rule="evenodd" d="M4.0781 1.83301H7.07153C8.31137 1.83301 9.31638 2.84675 9.31638 4.09734V7.11677C9.31638 8.36641 8.31137 9.3811 7.07153 9.3811H4.0781C2.83827 9.3811 1.83325 8.36641 1.83325 7.11677V4.09734C1.83325 2.84675 2.83827 1.83301 4.0781 1.83301Z" stroke="#53546D" stroke-width="1.5" stroke-linecap="round" stroke-linejoin="round"/>
<path fill-rule="evenodd" clip-rule="evenodd" d="M4.0781 12.6182H7.07153C8.31137 12.6182 9.31638 13.6319 9.31638 14.8834V17.9019C9.31638 19.1525 8.31137 20.1663 7.07153 20.1663H4.0781C2.83827 20.1663 1.83325 19.1525 1.83325 17.9019V14.8834C1.83325 13.6319 2.83827 12.6182 4.0781 12.6182Z" stroke="#53546D" stroke-width="1.5" stroke-linecap="round" stroke-linejoin="round"/>
<path fill-rule="evenodd" clip-rule="evenodd" d="M14.9282 12.6182H17.9226C19.1615 12.6182 20.1665 13.6319 20.1665 14.8834V17.9019C20.1665 19.1525 19.1615 20.1663 17.9226 20.1663H14.9282C13.6884 20.1663 12.6833 19.1525 12.6833 17.9019V14.8834C12.6833 13.6319 13.6884 12.6182 14.9282 12.6182Z" stroke="#53546D" stroke-width="1.5" stroke-linecap="round" stroke-linejoin="round"/>
</svg>
