<svg width="20" height="20" viewBox="0 0 20 20" fill="none" xmlns="http://www.w3.org/2000/svg">
<path fill-rule="evenodd" clip-rule="evenodd" d="M13.9282 0.833008H16.9226C18.1615 0.833008 19.1665 1.84675 19.1665 3.09734V6.11677C19.1665 7.36641 18.1615 8.3811 16.9226 8.3811H13.9282C12.6884 8.3811 11.6833 7.36641 11.6833 6.11677V3.09734C11.6833 1.84675 12.6884 0.833008 13.9282 0.833008Z" stroke="white" stroke-width="1.5" stroke-linecap="round" stroke-linejoin="round"/>
<path fill-rule="evenodd" clip-rule="evenodd" d="M3.0781 0.833008H6.07153C7.31137 0.833008 8.31638 1.84675 8.31638 3.09734V6.11677C8.31638 7.36641 7.31137 8.3811 6.07153 8.3811H3.0781C1.83827 8.3811 0.833252 7.36641 0.833252 6.11677V3.09734C0.833252 1.84675 1.83827 0.833008 3.0781 0.833008Z" stroke="white" stroke-width="1.5" stroke-linecap="round" stroke-linejoin="round"/>
<path fill-rule="evenodd" clip-rule="evenodd" d="M3.0781 11.6182H6.07153C7.31137 11.6182 8.31638 12.6319 8.31638 13.8834V16.9019C8.31638 18.1525 7.31137 19.1663 6.07153 19.1663H3.0781C1.83827 19.1663 0.833252 18.1525 0.833252 16.9019V13.8834C0.833252 12.6319 1.83827 11.6182 3.0781 11.6182Z" stroke="white" stroke-width="1.5" stroke-linecap="round" stroke-linejoin="round"/>
<path fill-rule="evenodd" clip-rule="evenodd" d="M13.9282 11.6182H16.9226C18.1615 11.6182 19.1665 12.6319 19.1665 13.8834V16.9019C19.1665 18.1525 18.1615 19.1663 16.9226 19.1663H13.9282C12.6884 19.1663 11.6833 18.1525 11.6833 16.9019V13.8834C11.6833 12.6319 12.6884 11.6182 13.9282 11.6182Z" stroke="white" stroke-width="1.5" stroke-linecap="round" stroke-linejoin="round"/>
</svg>
