<svg width="30" height="30" viewBox="0 0 30 30" fill="none" xmlns="http://www.w3.org/2000/svg">
<path fill-rule="evenodd" clip-rule="evenodd" d="M9.2603 16.8545C8.40062 16.8545 7.70221 16.1561 7.70221 15.2964C7.70221 14.4392 8.40062 13.7408 9.2603 13.7408C10.12 13.7408 10.8184 14.4392 10.8184 15.2964C10.8184 16.1561 10.12 16.8545 9.2603 16.8545ZM15.3175 16.8545C14.4578 16.8545 13.7594 16.1561 13.7594 15.2964C13.7594 14.4392 14.4578 13.7408 15.3175 13.7408C16.1772 13.7408 16.8756 14.4392 16.8756 15.2964C16.8756 16.1561 16.1772 16.8545 15.3175 16.8545ZM19.8166 15.2964C19.8166 16.1561 20.515 16.8545 21.3747 16.8545C22.2344 16.8545 22.9328 16.1561 22.9328 15.2964C22.9328 14.4392 22.2344 13.7408 21.3747 13.7408C20.515 13.7408 19.8166 14.4392 19.8166 15.2964Z" fill="#090A2E"/>
<path fill-rule="evenodd" clip-rule="evenodd" d="M15.0267 1.66666C7.28002 1.66666 1.66669 7.99482 1.66669 15.02C1.66669 17.2634 2.32002 19.5722 3.46669 21.682C3.68002 22.0305 3.70669 22.4699 3.56002 22.8852L2.66669 25.8763C2.46669 26.5974 3.08002 27.1302 3.76002 26.9165L6.45335 26.1167C7.18669 25.8763 7.76002 26.1821 8.44002 26.5974C10.3867 27.7444 12.8134 28.3333 15 28.3333C21.6134 28.3333 28.3334 23.219 28.3334 14.98C28.3334 7.87464 22.6 1.66666 15.0267 1.66666Z" stroke="#090A2E" stroke-width="1.5" stroke-linecap="round" stroke-linejoin="round"/>
</svg>
