<svg width="22" height="23" viewBox="0 0 22 23" fill="none" xmlns="http://www.w3.org/2000/svg">
<rect x="0.478261" y="12.9128" width="3.82609" height="8.6087" rx="0.478261" stroke="white" stroke-width="0.956522"/>
<path d="M13.8697 18.1737V17.6955C13.8697 16.6389 13.0132 15.7824 11.9566 15.7824H11.6509C10.9084 15.7824 10.1761 15.6096 9.51202 15.2775L8.66211 14.8526C7.99802 14.5205 7.26574 14.3477 6.52326 14.3477H4.78271V20.0868V20.0868C5.73053 20.0868 6.66964 20.2676 7.54966 20.6197L10.0779 21.631C10.6871 21.8746 11.3372 21.9998 11.9933 21.9998H12.1585C12.6577 21.9998 13.1529 21.9115 13.6213 21.7389L20.3212 19.2706C21.2168 18.9406 21.6268 17.9054 21.1999 17.0517V17.0517C20.8377 16.3273 19.9917 15.9873 19.229 16.2597L13.8697 18.1737ZM13.8697 18.1737H9.56532" stroke="white" stroke-width="0.956522" stroke-linecap="round"/>
<circle cx="13.3912" cy="6.69565" r="6.13768" stroke="white" stroke-width="1.11594"/>
<path d="M10.0435 10.0433L16.7391 3.34766" stroke="white" stroke-width="1.11594" stroke-linecap="round"/>
<circle cx="15.065" cy="8.36923" r="1.11594" stroke="white" stroke-width="1.11594"/>
<circle cx="11.7174" cy="5.02157" r="1.11594" stroke="white" stroke-width="1.11594"/>
</svg>
