<svg width="23" height="30" viewBox="0 0 23 30" fill="none" xmlns="http://www.w3.org/2000/svg">
<path d="M19.9974 0.354004H3.23177C1.6891 0.354004 0.4375 1.58403 0.4375 3.1001V26.8996C0.4375 28.4156 1.6891 29.6457 3.23177 29.6457H19.9974C21.5401 29.6457 22.7917 28.4156 22.7917 26.8996V3.1001C22.7917 1.58403 21.5401 0.354004 19.9974 0.354004ZM8.82031 2.18473H14.4089C14.9211 2.18473 15.3403 2.59665 15.3403 3.1001C15.3403 3.60355 14.9211 4.01546 14.4089 4.01546H8.82031C8.30803 4.01546 7.88889 3.60355 7.88889 3.1001C7.88889 2.59665 8.30803 2.18473 8.82031 2.18473ZM11.6146 9.50765C13.6695 9.50765 15.3403 11.1496 15.3403 13.1691C15.3403 15.1886 13.6695 16.8306 11.6146 16.8306C9.55963 16.8306 7.88889 15.1886 7.88889 13.1691C7.88889 11.1496 9.55963 9.50765 11.6146 9.50765ZM18.1345 23.055C18.1345 23.6615 17.5524 24.1535 16.8306 24.1535H6.39861C5.67676 24.1535 5.09462 23.6615 5.09462 23.055V21.9566C5.09462 20.1373 6.84686 18.6613 9.0066 18.6613H9.29767C10.0137 18.9531 10.7938 19.119 11.6146 19.119C12.4354 19.119 13.2213 18.9531 13.9315 18.6613H14.2226C16.3823 18.6613 18.1345 20.1373 18.1345 21.9566V23.055Z" fill="#1A39AE"/>
</svg>
