<svg width="32" height="32" viewBox="0 0 32 32" fill="none" xmlns="http://www.w3.org/2000/svg">
<g clip-path="url(#clip0_217_3749)">
<path d="M28.526 4.4375H3.47388C1.87741 4.4375 0.583252 5.73166 0.583252 7.32812V24.6719C0.583252 26.2683 1.87741 27.5625 3.47388 27.5625H28.526C30.1224 27.5625 31.4166 26.2683 31.4166 24.6719V7.32812C31.4166 5.73166 30.1224 4.4375 28.526 4.4375ZM28.526 7.32812V9.78546C27.1757 10.885 25.023 12.5948 20.4209 16.1984C19.4068 16.9962 17.3978 18.9127 15.9999 18.8904C14.6023 18.913 12.5927 16.9959 11.5789 16.1984C6.97756 12.5954 4.82434 10.8852 3.47388 9.78546V7.32812H28.526ZM3.47388 24.6719V13.4947C4.85379 14.5938 6.81068 16.1361 9.79339 18.4717C11.1096 19.5078 13.4147 21.7951 15.9999 21.7812C18.5724 21.7951 20.8483 19.541 22.2059 18.4722C25.1886 16.1366 27.146 14.5939 28.526 13.4947V24.6719H3.47388Z" fill="#1A39AE"/>
</g>
<defs>
<clipPath id="clip0_217_3749">
<rect width="30.8333" height="30.8333" fill="white" transform="translate(0.583252 0.583496)"/>
</clipPath>
</defs>
</svg>
