<svg width="512" height="328" viewBox="0 0 512 328" fill="none" xmlns="http://www.w3.org/2000/svg">
<g clip-path="url(#clip0_359_3273)">
<path d="M507.418 241.382C503.467 235.708 409.003 102.4 256 102.4C102.997 102.4 8.533 235.708 4.582 241.382C-1.528 250.171 -1.528 261.828 4.582 270.617C8.533 276.292 102.997 409.6 256 409.6C409.003 409.6 503.467 276.292 507.418 270.618C513.528 261.828 513.528 250.172 507.418 241.382ZM256 384C114.62 384 25.6 256 25.6 256C25.6 256 114.62 128 256 128C397.38 128 486.4 256 486.4 256C486.4 256 397.38 384 256 384Z" fill="#1A39AE"/>
<path d="M256 153.6C199.45 153.6 153.6 199.441 153.6 256C153.6 312.559 199.441 358.4 256 358.4C312.559 358.4 358.4 312.559 358.4 256C358.4 199.441 312.55 153.6 256 153.6ZM256 332.8C213.649 332.8 179.2 298.351 179.2 256C179.2 213.649 213.649 179.2 256 179.2C298.351 179.2 332.8 213.649 332.8 256C332.8 298.351 298.351 332.8 256 332.8Z" fill="#1A39AE"/>
</g>
<defs>
<clipPath id="clip0_359_3273">
<rect width="512" height="512" fill="white"/>
</clipPath>
</defs>
</svg>
