<svg width="92" height="77" viewBox="0 0 92 77" fill="none" xmlns="http://www.w3.org/2000/svg">
<path d="M81.7778 0H10.2222C4.58467 0 0 3.79628 0 8.46438V67.7151C0 72.3832 4.58467 76.1794 10.2222 76.1794H81.7778C87.4153 76.1794 92 72.3832 92 67.7151V8.46438C92 3.79628 87.4153 0 81.7778 0ZM10.2222 67.7151V8.46438H81.7778L81.788 67.7151H10.2222Z" fill="#C1C2CB"/>
<path d="M35.7778 46.5541L30.6667 42.3219L15.3333 59.2507H76.6667L51.1111 29.6253L35.7778 46.5541Z" fill="#C1C2CB"/>
<path d="M28.1111 33.8575C32.3453 33.8575 35.7778 31.0153 35.7778 27.5092C35.7778 24.0032 32.3453 21.161 28.1111 21.161C23.8769 21.161 20.4444 24.0032 20.4444 27.5092C20.4444 31.0153 23.8769 33.8575 28.1111 33.8575Z" fill="#C1C2CB"/>
</svg>
