<svg width="30" height="30" viewBox="0 0 30 30" fill="none" xmlns="http://www.w3.org/2000/svg">
<path fill-rule="evenodd" clip-rule="evenodd" d="M19.2727 8.46844V7.14669C19.2727 4.26377 16.9352 1.92627 14.0523 1.92627H7.146C4.2645 1.92627 1.927 4.26377 1.927 7.14669V22.9142C1.927 25.7971 4.2645 28.1346 7.146 28.1346H14.0664C16.9408 28.1346 19.2727 25.8042 19.2727 22.9298V21.5939" fill="#D9D9D9" fill-opacity="0.7"/>
<path d="M19.2727 8.46844V7.14669C19.2727 4.26377 16.9352 1.92627 14.0523 1.92627H7.146C4.2645 1.92627 1.927 4.26377 1.927 7.14669V22.9142C1.927 25.7971 4.2645 28.1346 7.146 28.1346H14.0664C16.9408 28.1346 19.2727 25.8042 19.2727 22.9298V21.5939" stroke="#1A39AE" stroke-width="2" stroke-linecap="round" stroke-linejoin="round"/>
<path d="M28.8968 15.0303H11.8387" stroke="#1A39AE" stroke-width="2" stroke-linecap="round" stroke-linejoin="round"/>
<path d="M24.7484 10.9006L28.8964 15.0302L24.7484 19.1612" stroke="#1A39AE" stroke-width="2" stroke-linecap="round" stroke-linejoin="round"/>
</svg>
