<svg width="80" height="80" viewBox="0 0 80 80" fill="none" xmlns="http://www.w3.org/2000/svg">
<path d="M12 35C16.4125 35 20 30.5156 20 25C20 19.4844 16.4125 15 12 15C7.5875 15 4 19.4844 4 25C4 30.5156 7.5875 35 12 35ZM68 35C72.4125 35 76 30.5156 76 25C76 19.4844 72.4125 15 68 15C63.5875 15 60 19.4844 60 25C60 30.5156 63.5875 35 68 35ZM72 40H64C61.8 40 59.8125 41.1094 58.3625 42.9062C63.4 46.3594 66.975 52.5938 67.75 60H76C78.2125 60 80 57.7656 80 55V50C80 44.4844 76.4125 40 72 40ZM40 40C47.7375 40 54 32.1719 54 22.5C54 12.8281 47.7375 5 40 5C32.2625 5 26 12.8281 26 22.5C26 32.1719 32.2625 40 40 40ZM49.6 45H48.5625C45.9625 46.5625 43.075 47.5 40 47.5C36.925 47.5 34.05 46.5625 31.4375 45H30.4C22.45 45 16 53.0625 16 63V67.5C16 71.6406 18.6875 75 22 75H58C61.3125 75 64 71.6406 64 67.5V63C64 53.0625 57.55 45 49.6 45ZM21.6375 42.9062C20.1875 41.1094 18.2 40 16 40H8C3.5875 40 0 44.4844 0 50V55C0 57.7656 1.7875 60 4 60H12.2375C13.025 52.5938 16.6 46.3594 21.6375 42.9062Z" fill="#3651B8"/>
</svg>
