<svg width="35" height="36" viewBox="0 0 35 36" fill="none" xmlns="http://www.w3.org/2000/svg">
<path d="M16.7093 18.0835C20.4889 18.0835 23.5528 14.897 23.5528 10.9662C23.5528 7.03548 20.4889 3.84897 16.7093 3.84897C12.9297 3.84897 9.86575 7.03548 9.86575 10.9662C9.86575 14.897 12.9297 18.0835 16.7093 18.0835Z" fill="#1A39AE"/>
<path fill-rule="evenodd" clip-rule="evenodd" d="M5.85413 27.9822C5.8523 27.4819 5.9599 26.9877 6.16879 26.537C6.82429 25.1735 8.67283 24.4509 10.2067 24.1237C11.313 23.8781 12.4345 23.7141 13.5629 23.6328C15.6522 23.442 17.7535 23.442 19.8428 23.6328C20.9711 23.715 22.0926 23.8791 23.199 24.1237C24.7328 24.4509 26.5814 25.1053 27.2368 26.537C27.657 27.4557 27.657 28.5223 27.2368 29.4411C26.5814 30.8727 24.7328 31.5272 23.199 31.8409C22.0941 32.0965 20.9721 32.2652 19.8428 32.3454C18.1423 32.4952 16.4339 32.5226 14.7297 32.4272C14.3365 32.4272 13.9563 32.4272 13.5629 32.3454C12.4378 32.2662 11.3202 32.0975 10.2198 31.8409C8.67283 31.5272 6.83741 30.8727 6.16879 29.4411C5.96096 28.9851 5.85347 28.4868 5.85413 27.9822Z" fill="#1A39AE"/>
</svg>
