<svg width="30" height="31" viewBox="0 0 30 31" fill="none" xmlns="http://www.w3.org/2000/svg">
<path d="M0 15.6954V3.73535C0 2.18203 1.25918 0.922852 2.8125 0.922852H14.7725C15.5185 0.922855 16.2338 1.21917 16.7613 1.74662L29.1762 14.1616C30.2746 15.2599 30.2746 17.0407 29.1762 18.1391L17.2162 30.0991C16.1179 31.1974 14.3371 31.1974 13.2387 30.0991L0.82377 17.6841C0.296323 17.1567 3.90045e-06 16.4413 0 15.6954H0ZM6.5625 4.67285C5.00918 4.67285 3.75 5.93203 3.75 7.48535C3.75 9.03868 5.00918 10.2979 6.5625 10.2979C8.11582 10.2979 9.375 9.03868 9.375 7.48535C9.375 5.93203 8.11582 4.67285 6.5625 4.67285Z" fill="#1A39AE"/>
</svg>
