<svg width="31" height="33" viewBox="0 0 31 33" fill="none" xmlns="http://www.w3.org/2000/svg">
<path fill-rule="evenodd" clip-rule="evenodd" d="M28.9438 10.0706L27.9583 8.3605C27.1246 6.91345 25.2769 6.41426 23.8279 7.24455V7.24455C23.1381 7.65088 22.3151 7.76616 21.5403 7.56497C20.7654 7.36378 20.1024 6.86265 19.6975 6.17209C19.437 5.73315 19.297 5.23321 19.2917 4.72281V4.72281C19.3152 3.90452 19.0064 3.11156 18.4358 2.52456C17.8652 1.93757 17.0813 1.60654 16.2627 1.60687H14.2772C13.4752 1.60686 12.7062 1.92645 12.1405 2.49492C11.5747 3.06338 11.2588 3.83386 11.2627 4.63586V4.63586C11.2389 6.29172 9.88972 7.62154 8.23369 7.62137C7.7233 7.61606 7.22335 7.47608 6.78442 7.21557V7.21557C5.3354 6.38527 3.48773 6.88447 2.65398 8.33151L1.59601 10.0706C0.76328 11.5159 1.25568 13.3624 2.69746 14.2011V14.2011C3.63464 14.7421 4.21197 15.7421 4.21197 16.8243C4.21197 17.9064 3.63464 18.9064 2.69746 19.4475V19.4475C1.25751 20.2805 0.764574 22.1225 1.59601 23.5634V23.5634L2.59601 25.288C2.98666 25.9929 3.64209 26.513 4.41727 26.7334C5.19245 26.9537 6.02348 26.856 6.72645 26.4619V26.4619C7.41751 26.0587 8.24101 25.9482 9.01392 26.1551C9.78683 26.3619 10.4451 26.8689 10.8424 27.5634C11.1029 28.0023 11.2429 28.5023 11.2482 29.0127V29.0127C11.2482 30.6855 12.6043 32.0417 14.2772 32.0417H16.2627C17.9299 32.0417 19.2837 30.6944 19.2917 29.0272V29.0272C19.2878 28.2226 19.6057 27.45 20.1746 26.8811C20.7434 26.3122 21.5161 25.9943 22.3207 25.9982C22.8298 26.0118 23.3277 26.1512 23.7699 26.404V26.404C25.2152 27.2367 27.0617 26.7443 27.9004 25.3025V25.3025L28.9438 23.5634C29.3477 22.8701 29.4586 22.0444 29.2519 21.2692C29.0451 20.4939 28.5379 19.8331 27.8424 19.433V19.433C27.1469 19.0329 26.6397 18.372 26.4329 17.5967C26.2262 16.8215 26.337 15.9958 26.7409 15.3025C27.0036 14.8439 27.3838 14.4637 27.8424 14.2011V14.2011C29.2755 13.3628 29.7668 11.5271 28.9438 10.0851V10.0851V10.0706Z" fill="#1A39AE" stroke="white" stroke-width="1.5" stroke-linecap="round" stroke-linejoin="round"/>
<ellipse cx="15.2772" cy="16.8243" rx="4.17391" ry="4.17391" stroke="white" stroke-width="2" stroke-linecap="round" stroke-linejoin="round"/>
</svg>
