<svg width="483" height="483" viewBox="0 0 483 483" fill="none" xmlns="http://www.w3.org/2000/svg">
<path d="M395.72 0C347.516 0 308.439 39.078 308.439 87.281C308.439 89.317 308.603 91.311 308.748 93.31L147.515 168.984C131.847 154.013 110.663 144.769 87.284 144.769C39.08 144.77 0.0019989 183.848 0.0019989 232.051C0.0019989 280.255 39.08 319.332 87.283 319.332C102.489 319.332 116.784 315.425 129.231 308.591L199.02 367.397C195.964 376.293 194.231 385.793 194.231 395.719C194.231 443.923 233.309 483 281.512 483C329.717 483 368.793 443.922 368.793 395.719C368.793 347.516 329.716 308.438 281.512 308.438C266.307 308.438 252.012 312.346 239.563 319.178L169.775 260.373C172.832 251.482 174.564 241.977 174.564 232.051C174.564 230.016 174.4 228.027 174.256 226.022L335.488 150.348C351.156 165.319 372.34 174.563 395.718 174.563C443.921 174.563 482.999 135.485 482.999 87.282C482.999 39.079 443.923 0 395.72 0Z" fill="#1A39AE"/>
</svg>
