<svg width="80" height="80" viewBox="0 0 80 80" fill="none" xmlns="http://www.w3.org/2000/svg">
<g clip-path="url(#clip0_211_3171)">
<path d="M78.7473 19.8748C79.4392 19.8748 80 19.3142 80 18.6222V6.59703C80 2.95953 77.0405 0 73.403 0H6.59703C2.95953 0 0 2.95953 0 6.59703V54.6972C0 58.3349 2.95953 61.2942 6.59703 61.2942H13.2777C13.9694 61.2942 14.5303 60.7336 14.5303 60.0416C14.5303 59.3497 13.9695 58.7889 13.2777 58.7889H6.59703C4.34078 58.7889 2.50516 56.9534 2.50516 54.697V54.6136H77.4947V54.697C77.4947 56.9534 75.6592 58.7889 73.4028 58.7889H18.6222C17.9305 58.7889 17.3695 59.3495 17.3695 60.0416C17.3695 60.7334 17.9303 61.2942 18.6222 61.2942H31.8188L29.845 72.1502H27.975C25.8108 72.1502 24.0502 73.9108 24.0502 76.075V78.7472C24.0502 79.4391 24.6109 79.9998 25.3028 79.9998H54.6973C55.3892 79.9998 55.95 79.4392 55.95 78.7472V76.075C55.95 73.9108 54.1894 72.1502 52.0252 72.1502H50.1555L48.1817 61.2942H73.4031C77.0408 61.2942 80.0002 58.3347 80.0002 54.6972V23.967C80.0002 23.2752 79.4395 22.7144 78.7475 22.7144C78.0556 22.7144 77.4948 23.275 77.4948 23.967V52.1084H2.50516V9.18578H77.4947V18.6223C77.4948 19.3142 78.0555 19.8748 78.7473 19.8748ZM34.3647 61.2944H45.635L47.6089 72.1503H32.3909L34.3647 61.2944ZM52.025 74.6555C52.8078 74.6555 53.4447 75.2924 53.4447 76.0752V77.4949H26.5553V76.0752C26.5553 75.2924 27.1922 74.6555 27.975 74.6555H52.025ZM2.50516 6.68063V6.59719C2.50516 4.34078 4.34078 2.50531 6.59703 2.50531H73.4028C75.6592 2.50531 77.4947 4.34078 77.4947 6.59719V6.68063H2.50516Z" fill="#3651B8"/>
<path d="M69.3944 13.3611H68.4102L68.9439 12.8273C69.4332 12.3379 69.4332 11.545 68.9439 11.0558C68.4546 10.5667 67.6616 10.5667 67.1724 11.0558L65.386 12.8423L63.5996 11.0558C63.1102 10.5667 62.3172 10.5667 61.828 11.0558C61.3388 11.5451 61.3388 12.3381 61.828 12.8273L62.3618 13.3611H61.3775C60.6857 13.3611 60.1249 13.9217 60.1249 14.6137V21.3778H41.336C36.9618 21.3778 33.4029 24.9367 33.4029 29.3109C33.4029 33.6851 36.9618 37.244 41.336 37.244H60.0416C63.0347 37.244 65.4696 39.6789 65.4696 42.672C65.4696 45.6651 63.0347 48.1 60.0416 48.1H22.5629C23.581 46.7892 24.9536 44.9587 26.3391 42.9169C30.0288 37.4787 31.8997 33.3506 31.8997 30.647C31.8997 24.0625 26.5427 18.7054 19.9582 18.7054C13.3736 18.7054 8.0166 24.0625 8.0166 30.647C8.0166 33.3506 9.88754 37.4787 13.5772 42.9169C16.2285 46.8244 18.8347 49.9614 18.9913 50.149C19.2611 50.4189 19.5627 50.6051 19.9582 50.6051H60.0416C64.4158 50.6051 67.9747 47.0462 67.9747 42.672C67.9747 38.2978 64.4158 34.7389 60.0416 34.7389H41.336C38.343 34.7389 35.908 32.304 35.908 29.3109C35.908 26.3178 38.343 23.8829 41.336 23.8829H61.3777H69.3944C70.0863 23.8829 70.6471 23.3223 70.6471 22.6303V14.6137C70.6471 13.9219 70.0864 13.3611 69.3944 13.3611ZM10.5218 30.6472C10.5218 25.444 14.7549 21.2108 19.9582 21.2108C25.1614 21.2108 29.3944 25.4439 29.3944 30.6472C29.3944 34.6806 23.275 43.2012 19.9582 47.368C16.6413 43.2011 10.5218 34.6806 10.5218 30.6472ZM62.6303 15.8664H64.1335V17.3695H62.6303V15.8664ZM62.6303 21.3778V19.8747H64.1335V21.2944C64.1335 21.3226 64.1358 21.3501 64.1377 21.3778H62.6303ZM68.1419 21.3778H66.6346C66.6364 21.3501 66.6388 21.3225 66.6388 21.2944V19.8747H68.0585C68.0868 19.8747 68.1143 19.8723 68.1419 19.8704V21.3778ZM68.1419 17.3737C68.1143 17.3719 68.0866 17.3695 68.0585 17.3695H66.6388V15.8664H68.1419V17.3737Z" fill="#3651B8"/>
<path d="M19.9584 24.0502C16.3207 24.0502 13.3613 27.0097 13.3613 30.6472C13.3613 34.2847 16.3209 37.2442 19.9584 37.2442C23.5959 37.2442 26.5554 34.2847 26.5554 30.6472C26.5554 27.0097 23.5959 24.0502 19.9584 24.0502ZM19.9584 34.7391C17.7021 34.7391 15.8665 32.9036 15.8665 30.6472C15.8665 28.3908 17.7021 26.5553 19.9584 26.5553C22.2146 26.5553 24.0502 28.3908 24.0502 30.6472C24.0502 32.9036 22.2145 34.7391 19.9584 34.7391Z" fill="#3651B8"/>
</g>
<defs>
<clipPath id="clip0_211_3171">
<rect width="80" height="80" fill="white"/>
</clipPath>
</defs>
</svg>
