<svg width="49" height="47" viewBox="0 0 49 47" fill="none" xmlns="http://www.w3.org/2000/svg">
<path d="M32.408 28.664C32.408 29.7307 32.1413 30.744 31.608 31.704C31.0747 32.6427 30.2853 33.432 29.24 34.072C28.216 34.6907 27 35.064 25.592 35.192V37.784H23.768V35.192C21.72 35.0427 20.0667 34.4347 18.808 33.368C17.5493 32.28 16.92 30.8507 16.92 29.08H20.824C20.888 29.9333 21.1653 30.6373 21.656 31.192C22.1467 31.7253 22.8507 32.0667 23.768 32.216V25.176C22.296 24.8133 21.1013 24.4507 20.184 24.088C19.288 23.704 18.52 23.1067 17.88 22.296C17.24 21.464 16.92 20.344 16.92 18.936C16.92 17.1227 17.5493 15.64 18.808 14.488C20.0667 13.336 21.72 12.6747 23.768 12.504V9.912H25.592V12.504C27.512 12.6533 29.048 13.24 30.2 14.264C31.3733 15.2667 32.0347 16.664 32.184 18.456H28.28C28.216 17.7733 27.9387 17.1653 27.448 16.632C26.9787 16.0987 26.36 15.7467 25.592 15.576V22.488C27.064 22.8293 28.248 23.1813 29.144 23.544C30.04 23.9067 30.808 24.504 31.448 25.336C32.088 26.1467 32.408 27.256 32.408 28.664ZM20.632 18.744C20.632 19.64 20.8987 20.3333 21.432 20.824C21.9867 21.3147 22.7653 21.7093 23.768 22.008V15.48C22.808 15.608 22.04 15.9493 21.464 16.504C20.9093 17.0373 20.632 17.784 20.632 18.744ZM25.592 32.216C26.5733 32.0667 27.3413 31.6933 27.896 31.096C28.4507 30.4773 28.728 29.7307 28.728 28.856C28.728 28.0027 28.4507 27.3307 27.896 26.84C27.3627 26.3493 26.5947 25.9547 25.592 25.656V32.216Z" fill="#1A39AE"/>
<path d="M24.5 46C37.4169 46 48 36.1681 48 23.9062C48 11.6444 37.4169 1.8125 24.5 1.8125C11.5831 1.8125 1 11.6444 1 23.9062C1 36.1681 11.5831 46 24.5 46Z" stroke="#1A39AE" stroke-width="2"/>
</svg>
