<svg width="637" height="530" viewBox="0 0 637 530" fill="none" xmlns="http://www.w3.org/2000/svg">
<path d="M318.376 107.514C263.885 107.514 212.123 128.289 172.624 166.013C133.26 203.606 110.11 254.111 107.44 308.223C107.304 310.968 108.3 313.648 110.194 315.64C112.09 317.631 114.718 318.757 117.465 318.757H162.844C168.138 318.757 172.524 314.643 172.86 309.358C177.749 232.844 241.667 172.909 318.377 172.909C398.78 172.909 464.192 238.337 464.192 318.757C464.192 399.178 398.78 464.605 318.377 464.605C300.201 464.605 282.472 461.305 265.681 454.796L283.112 439.31C285.808 436.947 287.038 433.323 286.341 429.805C285.642 426.285 283.12 423.409 279.724 422.254L166.305 389.574C162.905 388.42 159.156 389.165 156.458 391.53C153.762 393.893 152.531 397.516 153.228 401.034L177.274 512.259C177.973 515.778 180.495 518.656 183.89 519.81C187.285 520.962 191.038 520.22 193.736 517.856L212.404 501.494C244.469 520.141 281.114 530 318.377 530C434.829 530 529.572 435.236 529.572 318.757C529.572 202.277 434.829 107.514 318.376 107.514Z" fill="#1A39AE"/>
<path d="M303.078 346.771H421.68C424.439 346.771 426.684 344.5 426.684 341.705V311.308C426.684 308.515 424.439 306.242 421.68 306.242H338.108V214.038C338.108 211.244 335.863 208.971 333.104 208.971H303.078C300.319 208.971 298.074 211.244 298.074 214.038V341.705C298.074 344.5 300.319 346.771 303.078 346.771Z" fill="#1A39AE"/>
</svg>
