<svg width="22" height="22" viewBox="0 0 22 22" fill="none" xmlns="http://www.w3.org/2000/svg">
<path d="M3.3 9.625C4.51343 9.625 5.5 8.39182 5.5 6.875C5.5 5.3582 4.51343 4.125 3.3 4.125C2.08656 4.125 1.1 5.3582 1.1 6.875C1.1 8.39182 2.08656 9.625 3.3 9.625ZM18.7 9.625C19.9135 9.625 20.9 8.39182 20.9 6.875C20.9 5.3582 19.9135 4.125 18.7 4.125C17.4865 4.125 16.5 5.3582 16.5 6.875C16.5 8.39182 17.4865 9.625 18.7 9.625ZM19.8 11H17.6C16.995 11 16.4485 11.3051 16.0497 11.7992C17.435 12.7488 18.4181 14.4633 18.6312 16.5H20.9C21.5085 16.5 22 15.8856 22 15.125V13.75C22 12.2332 21.0135 11 19.8 11ZM11 11C13.1278 11 14.85 8.8473 14.85 6.1875C14.85 3.52773 13.1278 1.375 11 1.375C8.87221 1.375 7.15 3.52773 7.15 6.1875C7.15 8.8473 8.87221 11 11 11ZM13.64 12.375H13.3547C12.6397 12.8047 11.8456 13.0625 11 13.0625C10.1543 13.0625 9.36375 12.8047 8.64529 12.375H8.36C6.17375 12.375 4.4 14.5922 4.4 17.325V18.5625C4.4 19.7012 5.13906 20.625 6.05 20.625H15.95C16.861 20.625 17.6 19.7012 17.6 18.5625V17.325C17.6 14.5922 15.8263 12.375 13.64 12.375ZM5.95032 11.7992C5.55157 11.3051 5.005 11 4.4 11H2.2C0.986566 11 0 12.2332 0 13.75V15.125C0 15.8856 0.491562 16.5 1.1 16.5H3.36531C3.58188 14.4633 4.565 12.7488 5.95032 11.7992Z" fill="black"/>
</svg>
