<svg width="28" height="28" viewBox="0 0 28 28" fill="none" xmlns="http://www.w3.org/2000/svg">
<path d="M4.2 12.25C5.74437 12.25 7 10.6805 7 8.75C7 6.81953 5.74437 5.25 4.2 5.25C2.65562 5.25 1.4 6.81953 1.4 8.75C1.4 10.6805 2.65562 12.25 4.2 12.25ZM23.8 12.25C25.3444 12.25 26.6 10.6805 26.6 8.75C26.6 6.81953 25.3444 5.25 23.8 5.25C22.2556 5.25 21 6.81953 21 8.75C21 10.6805 22.2556 12.25 23.8 12.25ZM25.2 14H22.4C21.63 14 20.9344 14.3883 20.4269 15.0172C22.19 16.2258 23.4412 18.4078 23.7125 21H26.6C27.3744 21 28 20.218 28 19.25V17.5C28 15.5695 26.7444 14 25.2 14ZM14 14C16.7081 14 18.9 11.2602 18.9 7.875C18.9 4.48984 16.7081 1.75 14 1.75C11.2919 1.75 9.1 4.48984 9.1 7.875C9.1 11.2602 11.2919 14 14 14ZM17.36 15.75H16.9969C16.0869 16.2969 15.0762 16.625 14 16.625C12.9237 16.625 11.9175 16.2969 11.0031 15.75H10.64C7.8575 15.75 5.6 18.5719 5.6 22.05V23.625C5.6 25.0742 6.54062 26.25 7.7 26.25H20.3C21.4594 26.25 22.4 25.0742 22.4 23.625V22.05C22.4 18.5719 20.1425 15.75 17.36 15.75ZM7.57313 15.0172C7.06563 14.3883 6.37 14 5.6 14H2.8C1.25563 14 0 15.5695 0 17.5V19.25C0 20.218 0.625625 21 1.4 21H4.28312C4.55875 18.4078 5.81 16.2258 7.57313 15.0172Z" fill="white"/>
</svg>
