<svg width="80" height="80" viewBox="0 0 80 80" fill="none" xmlns="http://www.w3.org/2000/svg">
<g clip-path="url(#clip0_211_3198)">
<path d="M66.5575 18.6686L63.2201 6.44077L51.8793 9.53602L47.155 0L9.4729 18.6686H0V78.5028H74.8551V62.3754H80.0001V34.5231H74.8549V18.6686H66.5575ZM59.2843 13.3314L60.7411 18.6687H56.4038H50.1418H39.7288L48.9015 16.1652L54.4176 14.6596L59.2843 13.3314ZM69.2437 72.8916H5.61122V42.3309V31.6753V30.8309V25.0723V24.2799H8.51429H10.7867H19.1698H52.9217H59.1839H62.2726H65.1807H68.089H69.2437V28.5108V34.523H67.9765H65.0682H57.819H45.1792H40.6228V36.7804V43.0425V43.7652V46.6735V49.5817V62.3752H69.2439V72.8914H69.2437V72.8916ZM74.3888 56.7642H72.0492H69.2436H46.2341V48.0504V45.1422V42.2339V40.2627V40.1343H46.4931H53.9268H64.5823H69.2439H72.0495H72.4163H74.3888V56.7642ZM44.618 7.51895L46.3633 11.0415L26.6452 16.4231L44.618 7.51895Z" fill="#3651B8"/>
<path d="M50.6782 45.8385V46.8375V51.3327H56.1726V45.8385H54.3381H50.6782Z" fill="#3651B8"/>
</g>
<defs>
<clipPath id="clip0_211_3198">
<rect width="80" height="80" fill="white"/>
</clipPath>
</defs>
</svg>
