<svg width="36" height="34" viewBox="0 0 36 34" fill="none" xmlns="http://www.w3.org/2000/svg">
<path fill-rule="evenodd" clip-rule="evenodd" d="M10.3224 0.923096H25.6773C30.8258 0.923096 34.9997 5.17744 34.9997 10.4252V23.421C34.9997 28.6688 30.8258 32.9231 25.6773 32.9231H10.3224C5.17387 32.9231 1 28.6688 1 23.421V10.4252C1 5.17744 5.17387 0.923096 10.3224 0.923096Z" fill="#1A39AE" stroke="white" stroke-width="1.5" stroke-linecap="round" stroke-linejoin="round"/>
<path fill-rule="evenodd" clip-rule="evenodd" d="M35 21.5578H27.8083C25.1676 21.5562 23.0273 19.3762 23.0256 16.6846C23.0256 13.9931 25.1676 11.8131 27.8083 11.8115H35" fill="#1A39AE"/>
<path d="M35 21.5578H27.8083C25.1676 21.5562 23.0273 19.3762 23.0256 16.6846C23.0256 13.9931 25.1676 11.8131 27.8083 11.8115H35" stroke="white" stroke-width="2" stroke-linecap="round" stroke-linejoin="round"/>
<path fill-rule="evenodd" clip-rule="evenodd" d="M28.6218 16.5731H28.0681H28.6218Z" fill="#1A39AE"/>
<path d="M28.6218 16.5731H28.0681" stroke="white" stroke-width="2" stroke-linecap="round" stroke-linejoin="round"/>
<path fill-rule="evenodd" clip-rule="evenodd" d="M9.05745 9.14052H18.6486H9.05745Z" fill="#1A39AE"/>
<path d="M9.05745 9.14052H18.6486" stroke="white" stroke-width="2" stroke-linecap="round" stroke-linejoin="round"/>
</svg>
